<?xml version="1.0" encoding="utf-8"?>
<!-- Generator: Adobe Illustrator 25.2.0, SVG Export Plug-In . SVG Version: 6.00 Build 0)  -->
<svg version="1.1" id="Слой_1" xmlns="http://www.w3.org/2000/svg" xmlns:xlink="http://www.w3.org/1999/xlink" x="0px" y="0px"
	 viewBox="0 0 1920 1080" style="enable-background:new 0 0 1920 1080;" xml:space="preserve">
<style type="text/css">
	.st0{fill:#383A36;}
	.st1{fill:#3D3F3B;}
	.st2{fill:#31332F;}
	.st3{fill:none;stroke:#000000;stroke-miterlimit:10;}
	.st4{fill:#3D3F3B;stroke:#000000;stroke-miterlimit:10;}
	.st5{fill:#595C53;}
	.st6{fill:none;}
	.st7{fill:#42453E;}
	.st8{fill:#4E514A;}
	.st9{fill:#2A2C28;}
</style>
<g id="Слой_3">
	<path class="st0" d="M522,649.5c-42.65,33.91-116.04,83.11-218.5,111c-150.07,40.85-276.38,12.52-333-4
		c3.83-86.5,7.67-173,11.5-259.5c1.31-70.87,9.61-89.51,18-91c7.78-1.38,17.27,6.73,22,13c15.36,20.36,4.15,49.14,10,51
		c6.55,2.08,21.71-34.45,30-32c4.54,1.34,2.36,13,9,16c6.14,2.78,10.95-5.84,22.66-6.49c7.32-0.41,8.14,3.83,24.34,8.49
		c49.49,14.22,51.11,11.29,62.5,19c4.45,3.01,9.35,6.94,15.5,6c11.87-1.82,12.01-19.26,25-25c14.59-6.45,26.01,10.44,37,5
		c16.42-8.12-1.35-49.6,20.5-69c10.98-9.75,29.48-11.68,37-5c8.11,7.21,0.13,22.85,7,27c6.03,3.64,13.35-7.69,32-13
		c18.62-5.3,23.23,2.6,40-4c4.73-1.86,17.56-6.66,25-19c6.26-10.37,4.52-19.19,11-22c6.23-2.7,15.82,2,21,8
		c6.2,7.17,5.04,17.14,11,19c3.85,1.2,5.99-2.45,9-2c10.18,1.52,8.63,46.66,15,80c3.64,19.06,12.21,46.51,35,78
		C521.67,575.83,521.83,612.67,522,649.5z"/>
	<path class="st1" d="M1920,1263.5H0C0.17,1044.67,0.33,825.83,0.5,607c24.35,19.17,93.48,68.04,183,60
		c25.86-2.32,85.47-7.68,112-49c19.17-29.87-2.7-42.49,15-108c5.07-18.76,18.3-68.37,61-106.5c6.09-5.44,11.46-9.48,15-12
		c5.98-0.17,14.85,0.34,25,4c0,0,1.37,0.48,2.7,1.04c11.61,4.95,39.96,23.5,94.3,123.46c5.75,10.58,21.1,38.64,42,40
		c11.89,0.77,15.05-7.11,44-22c33.71-17.34,42.07-13.15,51-26c10.34-14.88,4.12-27.69,17-38c6.98-5.58,11.21-3.75,25-8
		c26.93-8.3,27.8-20.53,46-25c21.52-5.28,44.87,5.78,58,18c8.99,8.37,14.33,20.91,25,46c12.2,28.67,11.59,36.12,21,45
		c15.24,14.38,36.74,13.64,44,14c80.95,4.02,131.58,231.71,256,273c17.13,5.69,48.09,15.96,79,4c20.16-7.8,22.5-18.17,57-34
		c21.84-10.02,27.18-8.75,44-19c22.87-13.95,20.59-20.93,39-31c2.08-1.14,41.96-22.32,68-6c4.94,3.1,6.23,5.57,21,32
		c26.92,48.17,33.8,59.93,47,63c9.3,2.16,14.06-1.77,21,3c9.96,6.84,8.26,20.49,12,32c5.17,15.9,20.45,27.18,53,40
		c74.99,29.53,97.22,10.46,150,35.5c49.98,23.71,55.64,52.96,104,59c16.22,2.03,32.77,11.7,50,5c25.65-9.97,30.77-39.73,37-39
		C1927.81,982.48,1932.83,1037.02,1920,1263.5z"/>
	<path class="st2" d="M1920,1080h-177c-50.67,0-101.33,0-152,0c20.29-93.9,67.64-158.73,104-178c16.48-8.73,51.65-27.38,73.5-24.5
		c4.49,0.59,15.39,2.47,25-3c6.21-3.53,5.97-7.32,12-9c6.59-1.84,13.14,0.94,18,3c7,2.97,6.07,4.55,12,7c10.24,4.24,13.71-0.18,22,4
		c7.49,3.77,7.71,8.91,13,9c5.23,0.09,6.29-4.9,13-6c5.97-0.98,8.55,2.42,14,3c4.89,0.52,12.15-1.21,22-12
		C1919.67,942.33,1919.83,1011.17,1920,1080z"/>
	<path class="st1" d="M1194,772"/>
	<path class="st1" d="M394,617"/>
	<path class="st3" d="M51.5,393.5"/>
	<path class="st3" d="M2005.5,874.5"/>
	<path class="st4" d="M1893.5,958.5"/>
	<path class="st4" d="M1846.5,1301.5"/>
	<path class="st3" d="M593.5,239.5"/>
	<path class="st3" d="M508.5,150.5"/>
	<path class="st5" d="M846,577c-7.86-2.07-11.3-0.56-13,1c-7.51,6.91,7.71,25.51,0,46c-3.01,8-9.4,15.99-13,15
		c-3.7-1.01-6.08-11.97-1-54c-11.73-4.79-18.26-11.18-22-16c-5.24-6.76-4.83-10.2-13-31c-7.57-19.28-9.21-19.59-10-26
		c-0.9-7.32-0.28-19.25,10-35c-3.57-5.34-9.03-12.33-17-19c-14.66-12.26-27.41-14.67-27-16c0.69-2.25,39.73-2.21,53,20
		c10.15,17,2.92,41.27,7,42c2.88,0.52,6.38-11.57,9-11c3.32,0.72-2.39,20.18,5,42c2.04,6.02,5.27,15.56,14,23
		c8.51,7.25,14.44,5.87,24,12c6.07,3.89,13.88,10.98,20,25C863.33,589,854.67,583,846,577z"/>
	<path class="st6" d="M884,266"/>
	<path class="st7" d="M1920,1080H920c0.17,0.17,0.33,0.33,0.5,0.5c-13.67-78.8,2.94-125.64,21-154c23.89-37.52,43.61-31.02,117-99
		c42.42-39.29,39.71-44.94,95-96c58.07-53.63,56.97-43.61,76-68c19.94-25.55,34.42-53.65,63-58c12.12-1.84,14.72,2.39,27-1
		c24.72-6.83,28.18-27.9,49-38c15.72-7.63,39.3-9.59,53,1c12.55,9.71,8.65,23.34,27,40c9.61,8.72,11.02,5.29,18,13
		c14.72,16.25,12.03,35.44,24,39c4.7,1.4,5.37-1.49,10,0c11.08,3.56,9.57,20.8,21,37c7.68,10.89,17.06,15.44,21,18
		C1560.8,726.39,1668.96,830.02,1920,1080z"/>
	<path class="st3" d="M1285.5,532.5"/>
	<path class="st3" d="M1399.5,494.5"/>
	<path class="st8" d="M1520.5,748.5c22.65,37.6,26.82,46.46,26,47c-1.31,0.86-11.77-22.1-37-39c-18.65-12.5-25.71-8.51-45-23
		c-7.79-5.85-19.95-15.19-28-31c-10.85-21.31-7.33-40.78-10-41c-1.91-0.16-5.33,9.64-12,52c-1.46-29.7-1.89-53.89-2-71
		c-0.11-17.71,0.07-35.67-7-38c-7-2.31-13.25,13.33-28,14c-13.37,0.61-25.12-11.47-24-14c1.06-2.4,12.97,5.33,27,1
		c9.57-2.95,22.47-12.25,22-25c-0.4-10.91-10.35-17.88-12-19c5.35-1.43,13.49-2.66,21,1c15.19,7.39,17.64,26.88,18,30
		c1.43,12.28-3.54,14.46-4,31c-0.43,15.27,3.32,30.84,7,31c4.47,0.2,8.03-22.41,11-22c3.19,0.44-4.04,26.13,9,41
		c9.76,11.13,28.73,13.76,32,9c1.38-2.02-0.33-4.95-5-14c-11.9-23.07-15.54-32.68-15-33c0.74-0.43,7.24,17.99,22,22
		c7.26,1.97,10.42-1.19,14,2c5.85,5.22-0.01,15.95,7.79,26.58c1.31,1.79,2.53,2.92,3.78,4.05c13.3,12.09,108.53,96.26,115.43,102.36
		c-30.83-17.28-53.84-31.19-64-38c-9.2-6.17-12.95-9.93-14-11c-5.28-5.39-5.78-7.74-11-12c-5.37-4.38-7.62-4.18-13-8
		c-8.24-5.85-7-9.32-13-14c-6.2-4.84-9.81-3.13-28-7c-17.42-3.7-22.56-7.07-24-5c-2.65,3.82,12.15,19.19,24,29
		C1498.2,737.84,1511.41,744.58,1520.5,748.5z"/>
	<path class="st3" d="M1759.5,659.5"/>
	<path class="st3" d="M1685.5,606.5"/>
	<path class="st0" d="M209,322"/>
	<path class="st4" d="M520.5,328.5"/>
	<path class="st4" d="M538.5,306.5"/>
	<path class="st4" d="M520.5,303.5"/>
	<path class="st4" d="M574.5,320.5"/>
</g>
<g id="Слой_2_1_">
	<polyline class="st9" points="184.57,798.84 203.71,842.58 199.51,842.46 210.14,867.2 203.98,867.96 216.26,893.5 209.5,893.5 
		220.9,917.5 194.5,917.5 194.58,929.5 182,929.35 181.5,916.5 157.5,913.94 164.5,888.5 157.5,888.5 170.63,860.76 164.63,860.55 
		174.59,837.17 169.19,837.17 	"/>
	<polyline class="st9" points="221.05,813.93 240.18,857.66 235.99,857.55 246.61,882.28 240.45,883.05 252.73,908.59 
		245.98,908.59 257.38,932.59 230.98,932.59 231.06,944.59 218.48,944.44 217.98,931.59 193.98,929.02 200.98,903.59 193.98,903.59 
		207.11,875.85 201.11,875.64 211.07,852.26 205.67,852.26 	"/>
	<polyline class="st9" points="270.05,813.93 289.18,857.66 284.99,857.55 295.61,882.28 289.45,883.05 301.73,908.59 
		294.98,908.59 306.38,932.59 279.98,932.59 280.06,944.59 267.48,944.44 266.98,931.59 242.98,929.02 249.98,903.59 242.98,903.59 
		256.11,875.85 250.11,875.64 260.07,852.26 254.67,852.26 	"/>
	<polyline class="st9" points="308.05,836.93 327.18,880.66 322.99,880.55 333.61,905.28 327.45,906.05 339.73,931.59 
		332.98,931.59 344.38,955.59 317.98,955.59 318.06,967.59 305.48,967.44 304.98,954.59 280.98,952.02 287.98,926.59 280.98,926.59 
		294.11,898.85 288.11,898.64 298.07,875.26 292.67,875.26 	"/>
	<polyline class="st9" points="346.05,830.93 365.18,874.66 360.99,874.55 371.61,899.28 365.45,900.05 377.73,925.59 
		370.98,925.59 382.38,949.59 355.98,949.59 356.06,961.59 343.48,961.44 342.98,948.59 318.98,946.02 325.98,920.59 318.98,920.59 
		332.11,892.85 326.11,892.64 336.07,869.26 330.67,869.26 	"/>
	<polyline class="st9" points="378.05,848.93 397.18,892.66 392.99,892.55 403.61,917.28 397.45,918.05 409.73,943.59 
		402.98,943.59 414.38,967.59 387.98,967.59 388.06,979.59 375.48,979.44 374.98,966.59 350.98,964.02 357.98,938.59 350.98,938.59 
		364.11,910.85 358.11,910.64 368.07,887.26 362.67,887.26 	"/>
	<polyline class="st9" points="414.05,830.93 433.18,874.66 428.99,874.55 439.61,899.28 433.45,900.05 445.73,925.59 
		438.98,925.59 450.38,949.59 423.98,949.59 424.06,961.59 411.48,961.44 410.98,948.59 386.98,946.02 393.98,920.59 386.98,920.59 
		400.11,892.85 394.11,892.64 404.07,869.26 398.67,869.26 	"/>
	<polyline class="st9" points="446.05,856.93 465.18,900.66 460.99,900.55 471.61,925.28 465.45,926.05 477.73,951.59 
		470.98,951.59 482.38,975.59 455.98,975.59 456.06,987.59 443.48,987.44 442.98,974.59 418.98,972.02 425.98,946.59 418.98,946.59 
		432.11,918.85 426.11,918.64 436.07,895.26 430.67,895.26 	"/>
	<polyline class="st9" points="446.05,856.93 465.18,900.66 460.99,900.55 471.61,925.28 465.45,926.05 477.73,951.59 
		470.98,951.59 482.38,975.59 455.98,975.59 456.06,987.59 443.48,987.44 442.98,974.59 418.98,972.02 425.98,946.59 418.98,946.59 
		432.11,918.85 426.11,918.64 436.07,895.26 430.67,895.26 	"/>
	<polyline class="st9" points="485.05,878.93 504.18,922.66 499.99,922.55 510.61,947.28 504.45,948.05 516.73,973.59 
		509.98,973.59 521.38,997.59 494.98,997.59 495.06,1009.59 482.48,1009.44 481.98,996.59 457.98,994.02 464.98,968.59 
		457.98,968.59 471.11,940.85 465.11,940.64 475.07,917.26 469.67,917.26 	"/>
	<polyline class="st9" points="517.05,871.93 536.18,915.66 531.99,915.55 542.61,940.28 536.45,941.05 548.73,966.59 
		541.98,966.59 553.38,990.59 526.98,990.59 527.06,1002.59 514.48,1002.44 513.98,989.59 489.98,987.02 496.98,961.59 
		489.98,961.59 503.11,933.85 497.11,933.64 507.07,910.26 501.67,910.26 	"/>
	<polyline class="st9" points="517.05,863.93 536.18,907.66 531.99,907.55 542.61,932.28 536.45,933.05 548.73,958.59 
		541.98,958.59 553.38,982.59 526.98,982.59 527.06,994.59 514.48,994.44 513.98,981.59 489.98,979.02 496.98,953.59 489.98,953.59 
		503.11,925.85 497.11,925.64 507.07,902.26 501.67,902.26 	"/>
	<polyline class="st9" points="554.05,871.93 573.18,915.66 568.99,915.55 579.61,940.28 573.45,941.05 585.73,966.59 
		578.98,966.59 590.38,990.59 563.98,990.59 564.06,1002.59 551.48,1002.44 550.98,989.59 526.98,987.02 533.98,961.59 
		526.98,961.59 540.11,933.85 534.11,933.64 544.07,910.26 538.67,910.26 	"/>
	<polyline class="st9" points="575.05,901.93 594.18,945.66 589.99,945.55 600.61,970.28 594.45,971.05 606.73,996.59 
		599.98,996.59 611.38,1020.59 584.98,1020.59 585.06,1032.59 572.48,1032.44 571.98,1019.59 547.98,1017.02 554.98,991.59 
		547.98,991.59 561.11,963.85 555.11,963.64 565.07,940.26 559.67,940.26 	"/>
	<polyline class="st9" points="617.05,895.93 636.18,939.66 631.99,939.55 642.61,964.28 636.45,965.05 648.73,990.59 
		641.98,990.59 653.38,1014.59 626.98,1014.59 627.06,1026.59 614.48,1026.44 613.98,1013.59 589.98,1011.02 596.98,985.59 
		589.98,985.59 603.11,957.85 597.11,957.64 607.07,934.26 601.67,934.26 	"/>
	<polyline class="st9" points="575.05,901.93 594.18,945.66 589.99,945.55 600.61,970.28 594.45,971.05 606.73,996.59 
		599.98,996.59 611.38,1020.59 584.98,1020.59 585.06,1032.59 572.48,1032.44 571.98,1019.59 547.98,1017.02 554.98,991.59 
		547.98,991.59 561.11,963.85 555.11,963.64 565.07,940.26 559.67,940.26 	"/>
	<polyline class="st9" points="654.05,928.93 673.18,972.66 668.99,972.55 679.61,997.28 673.45,998.05 685.73,1023.59 
		678.98,1023.59 690.38,1047.59 663.98,1047.59 664.06,1059.59 651.48,1059.44 650.98,1046.59 626.98,1044.02 633.98,1018.59 
		626.98,1018.59 640.11,990.85 634.11,990.64 644.07,967.26 638.67,967.26 	"/>
	<polyline class="st9" points="674.05,895.93 693.18,939.66 688.99,939.55 699.61,964.28 693.45,965.05 705.73,990.59 
		698.98,990.59 710.38,1014.59 683.98,1014.59 684.06,1026.59 671.48,1026.44 670.98,1013.59 646.98,1011.02 653.98,985.59 
		646.98,985.59 660.11,957.85 654.11,957.64 664.07,934.26 658.67,934.26 	"/>
	<polyline class="st9" points="713.05,913.93 732.18,957.66 727.99,957.55 738.61,982.28 732.45,983.05 744.73,1008.59 
		737.98,1008.59 749.38,1032.59 722.98,1032.59 723.06,1044.59 710.48,1044.44 709.98,1031.59 685.98,1029.02 692.98,1003.59 
		685.98,1003.59 699.11,975.85 693.11,975.64 703.07,952.26 697.67,952.26 	"/>
	<polyline class="st9" points="751.05,901.93 770.18,945.66 765.99,945.55 776.61,970.28 770.45,971.05 782.73,996.59 
		775.98,996.59 787.38,1020.59 760.98,1020.59 761.06,1032.59 748.48,1032.44 747.98,1019.59 723.98,1017.02 730.98,991.59 
		723.98,991.59 737.11,963.85 731.11,963.64 741.07,940.26 735.67,940.26 	"/>
	<polyline class="st9" points="800.05,895.93 819.18,939.66 814.99,939.55 825.61,964.28 819.45,965.05 831.73,990.59 
		824.98,990.59 836.38,1014.59 809.98,1014.59 810.06,1026.59 797.48,1026.44 796.98,1013.59 772.98,1011.02 779.98,985.59 
		772.98,985.59 786.11,957.85 780.11,957.64 790.07,934.26 784.67,934.26 	"/>
	<polyline class="st9" points="848.05,928.93 867.18,972.66 862.99,972.55 873.61,997.28 867.45,998.05 879.73,1023.59 
		872.98,1023.59 884.38,1047.59 857.98,1047.59 858.06,1059.59 845.48,1059.44 844.98,1046.59 820.98,1044.02 827.98,1018.59 
		820.98,1018.59 834.11,990.85 828.11,990.64 838.07,967.26 832.67,967.26 	"/>
	<polyline class="st9" points="899.05,913.93 918.18,957.66 913.99,957.55 924.61,982.28 918.45,983.05 930.73,1008.59 
		923.98,1008.59 935.38,1032.59 908.98,1032.59 909.06,1044.59 896.48,1044.44 895.98,1031.59 871.98,1029.02 878.98,1003.59 
		871.98,1003.59 885.11,975.85 879.11,975.64 889.07,952.26 883.67,952.26 	"/>
	<polyline class="st9" points="947.05,901.93 966.18,945.66 961.99,945.55 972.61,970.28 966.45,971.05 978.73,996.59 
		971.98,996.59 983.38,1020.59 956.98,1020.59 957.06,1032.59 944.48,1032.44 943.98,1019.59 919.98,1017.02 926.98,991.59 
		919.98,991.59 933.11,963.85 927.11,963.64 937.07,940.26 931.67,940.26 	"/>
	<polyline class="st9" points="992.05,887.93 1011.18,931.66 1006.99,931.55 1017.61,956.28 1011.45,957.05 1023.73,982.59 
		1016.98,982.59 1028.38,1006.59 1001.98,1006.59 1002.06,1018.59 989.48,1018.44 988.98,1005.59 964.98,1003.02 971.98,977.59 
		964.98,977.59 978.11,949.85 972.11,949.64 982.07,926.26 976.67,926.26 	"/>
	<polyline class="st9" points="1031.05,887.93 1050.18,931.66 1045.99,931.55 1056.61,956.28 1050.45,957.05 1062.73,982.59 
		1055.98,982.59 1067.38,1006.59 1040.98,1006.59 1041.06,1018.59 1028.48,1018.44 1027.98,1005.59 1003.98,1003.02 1010.98,977.59 
		1003.98,977.59 1017.11,949.85 1011.11,949.64 1021.07,926.26 1015.67,926.26 	"/>
	<polyline class="st9" points="1101.05,887.93 1120.18,931.66 1115.99,931.55 1126.61,956.28 1120.45,957.05 1132.73,982.59 
		1125.98,982.59 1137.38,1006.59 1110.98,1006.59 1111.06,1018.59 1098.48,1018.44 1097.98,1005.59 1073.98,1003.02 1080.98,977.59 
		1073.98,977.59 1087.11,949.85 1081.11,949.64 1091.07,926.26 1085.67,926.26 	"/>
	<polyline class="st9" points="1168.05,928.93 1187.18,972.66 1182.99,972.55 1193.61,997.28 1187.45,998.05 1199.73,1023.59 
		1192.98,1023.59 1204.38,1047.59 1177.98,1047.59 1178.06,1059.59 1165.48,1059.44 1164.98,1046.59 1140.98,1044.02 
		1147.98,1018.59 1140.98,1018.59 1154.11,990.85 1148.11,990.64 1158.07,967.26 1152.67,967.26 	"/>
	<polyline class="st9" points="1136.05,936.93 1155.18,980.66 1150.99,980.55 1161.61,1005.28 1155.45,1006.05 1167.73,1031.59 
		1160.98,1031.59 1172.38,1055.59 1145.98,1055.59 1146.06,1067.59 1133.48,1067.44 1132.98,1054.59 1108.98,1052.02 
		1115.98,1026.59 1108.98,1026.59 1122.11,998.85 1116.11,998.64 1126.07,975.26 1120.67,975.26 	"/>
	<polyline class="st9" points="1069.05,928.93 1088.18,972.66 1083.99,972.55 1094.61,997.28 1088.45,998.05 1100.73,1023.59 
		1093.98,1023.59 1105.38,1047.59 1078.98,1047.59 1079.06,1059.59 1066.48,1059.44 1065.98,1046.59 1041.98,1044.02 
		1048.98,1018.59 1041.98,1018.59 1055.11,990.85 1049.11,990.64 1059.07,967.26 1053.67,967.26 	"/>
	<polyline class="st9" points="1216.05,936.93 1235.18,980.66 1230.99,980.55 1241.61,1005.28 1235.45,1006.05 1247.73,1031.59 
		1240.98,1031.59 1252.38,1055.59 1225.98,1055.59 1226.06,1067.59 1213.48,1067.44 1212.98,1054.59 1188.98,1052.02 
		1195.98,1026.59 1188.98,1026.59 1202.11,998.85 1196.11,998.64 1206.07,975.26 1200.67,975.26 	"/>
	<polyline class="st9" points="1274.05,887.93 1293.18,931.66 1288.99,931.55 1299.61,956.28 1293.45,957.05 1305.73,982.59 
		1298.98,982.59 1310.38,1006.59 1283.98,1006.59 1284.06,1018.59 1271.48,1018.44 1270.98,1005.59 1246.98,1003.02 1253.98,977.59 
		1246.98,977.59 1260.11,949.85 1254.11,949.64 1264.07,926.26 1258.67,926.26 	"/>
	<polyline class="st9" points="1314.05,943.93 1333.18,987.66 1328.99,987.55 1339.61,1012.28 1333.45,1013.05 1345.73,1038.59 
		1338.98,1038.59 1350.38,1062.59 1323.98,1062.59 1324.06,1074.59 1311.48,1074.44 1310.98,1061.59 1286.98,1059.02 
		1293.98,1033.59 1286.98,1033.59 1300.11,1005.85 1294.11,1005.64 1304.07,982.26 1298.67,982.26 	"/>
	<polyline class="st9" points="1375.05,943.93 1394.18,987.66 1389.99,987.55 1400.61,1012.28 1394.45,1013.05 1406.73,1038.59 
		1399.98,1038.59 1411.38,1062.59 1384.98,1062.59 1385.06,1074.59 1372.48,1074.44 1371.98,1061.59 1347.98,1059.02 
		1354.98,1033.59 1347.98,1033.59 1361.11,1005.85 1355.11,1005.64 1365.07,982.26 1359.67,982.26 	"/>
	<polyline class="st9" points="1340.05,901.93 1359.18,945.66 1354.99,945.55 1365.61,970.28 1359.45,971.05 1371.73,996.59 
		1364.98,996.59 1376.38,1020.59 1349.98,1020.59 1350.06,1032.59 1337.48,1032.44 1336.98,1019.59 1312.98,1017.02 1319.98,991.59 
		1312.98,991.59 1326.11,963.85 1320.11,963.64 1330.07,940.26 1324.67,940.26 	"/>
	<polyline class="st9" points="1498.05,943.93 1517.18,987.66 1512.99,987.55 1523.61,1012.28 1517.45,1013.05 1529.73,1038.59 
		1522.98,1038.59 1534.38,1062.59 1507.98,1062.59 1508.06,1074.59 1495.48,1074.44 1494.98,1061.59 1470.98,1059.02 
		1477.98,1033.59 1470.98,1033.59 1484.11,1005.85 1478.11,1005.64 1488.07,982.26 1482.67,982.26 	"/>
	<polyline class="st9" points="1532.05,943.93 1551.18,987.66 1546.99,987.55 1557.61,1012.28 1551.45,1013.05 1563.73,1038.59 
		1556.98,1038.59 1568.38,1062.59 1541.98,1062.59 1542.06,1074.59 1529.48,1074.44 1528.98,1061.59 1504.98,1059.02 
		1511.98,1033.59 1504.98,1033.59 1518.11,1005.85 1512.11,1005.64 1522.07,982.26 1516.67,982.26 	"/>
	<polyline class="st9" points="1572.74,902 1598.01,959.77 1592.47,959.62 1606.51,992.29 1598.37,993.3 1614.59,1027.03 
		1605.66,1027.03 1620.73,1058.74 1585.85,1058.74 1585.96,1074.59 1569.34,1074.39 1568.68,1057.42 1536.98,1054.03 
		1546.22,1020.43 1536.98,1020.43 1554.32,983.79 1546.4,983.51 1559.55,952.63 1552.42,952.63 	"/>
	<polyline class="st9" points="1650.05,928.93 1669.18,972.66 1664.99,972.55 1675.61,997.28 1669.45,998.05 1681.73,1023.59 
		1674.98,1023.59 1686.38,1047.59 1659.98,1047.59 1660.06,1059.59 1647.48,1059.44 1646.98,1046.59 1622.98,1044.02 
		1629.98,1018.59 1622.98,1018.59 1636.11,990.85 1630.11,990.64 1640.07,967.26 1634.67,967.26 	"/>
	<polyline class="st9" points="148.05,806.93 167.18,850.66 162.99,850.55 173.61,875.28 167.45,876.05 179.73,901.59 
		172.98,901.59 184.38,925.59 157.98,925.59 158.06,937.59 145.48,937.44 144.98,924.59 120.98,922.02 127.98,896.59 120.98,896.59 
		134.11,868.85 128.11,868.64 138.07,845.26 132.67,845.26 	"/>
	<polyline class="st9" points="117.05,822.93 136.18,866.66 131.99,866.55 142.61,891.28 136.45,892.05 148.73,917.59 
		141.98,917.59 153.38,941.59 126.98,941.59 127.06,953.59 114.48,953.44 113.98,940.59 89.98,938.02 96.98,912.59 89.98,912.59 
		103.11,884.85 97.11,884.64 107.07,861.26 101.67,861.26 	"/>
	<polyline class="st9" points="90.05,836.93 109.18,880.66 104.99,880.55 115.61,905.28 109.45,906.05 121.73,931.59 114.98,931.59 
		126.38,955.59 99.98,955.59 100.06,967.59 87.48,967.44 86.98,954.59 62.98,952.02 69.98,926.59 62.98,926.59 76.11,898.85 
		70.11,898.64 80.07,875.26 74.67,875.26 	"/>
	<polyline class="st9" points="49.05,863.93 68.18,907.66 63.99,907.55 74.61,932.28 68.45,933.05 80.73,958.59 73.98,958.59 
		85.38,982.59 58.98,982.59 59.06,994.59 46.48,994.44 45.98,981.59 21.98,979.02 28.98,953.59 21.98,953.59 35.11,925.85 
		29.11,925.64 39.07,902.26 33.67,902.26 	"/>
	<polyline class="st9" points="70.05,822.93 89.18,866.66 84.99,866.55 95.61,891.28 89.45,892.05 101.73,917.59 94.98,917.59 
		106.38,941.59 79.98,941.59 80.06,953.59 67.48,953.44 66.98,940.59 42.98,938.02 49.98,912.59 42.98,912.59 56.11,884.85 
		50.11,884.64 60.07,861.26 54.67,861.26 	"/>
	<polyline class="st9" points="17.05,836.93 36.18,880.66 31.99,880.55 42.61,905.28 36.45,906.05 48.73,931.59 41.98,931.59 
		53.38,955.59 26.98,955.59 27.06,967.59 14.48,967.44 13.98,954.59 -10.02,952.02 -3.02,926.59 -10.02,926.59 3.11,898.85 
		-2.89,898.64 7.07,875.26 1.67,875.26 	"/>
	<path class="st9" d="M1918.87,1080H0c0-42.33,0-84.67,0-127c13.99,2.91,34.93,5.76,59.65,3c23.5-2.63,39.92-9.15,52.9-14
		c33.25-12.42,68.51-20.07,102.42-31c73.06-23.55,210.99,22.43,336.51,51c32.93,7.5,212.8,47.44,431.04,48
		c38.82,0.1,87.96-1.02,174.44-3c192.73-4.41,253.08,6.61,288.11,12c38.02,5.85,32.72,7.04,133.93,25
		c17.55,3.12,33.45,5.72,49.5,8.06c61.12,8.92,91.59,13.85,122.69,13.94c17.55,0.05,15.52-1.04,88.91-7
		c33.6-2.73,61.26-4.72,79.91-6C1919.62,1062,1919.25,1071,1918.87,1080z"/>
	<path class="st9" d="M1328,1130"/>
	<path class="st9" d="M1443,991"/>
	<polyline class="st9" points="1406.79,944.93 1425.92,988.66 1421.73,988.55 1432.36,1013.28 1426.2,1014.05 1438.48,1039.59 
		1431.72,1039.59 1443.12,1063.59 1416.72,1063.59 1416.8,1075.59 1404.22,1075.44 1403.72,1062.59 1379.72,1060.02 
		1386.72,1034.59 1379.72,1034.59 1392.85,1006.85 1386.85,1006.64 1396.81,983.26 1391.41,983.26 	"/>
	<polyline class="st9" points="1453.79,928.93 1472.92,972.66 1468.73,972.55 1479.36,997.28 1473.2,998.05 1485.48,1023.59 
		1478.72,1023.59 1490.12,1047.59 1463.72,1047.59 1463.8,1059.59 1451.22,1059.44 1450.72,1046.59 1426.72,1044.02 
		1433.72,1018.59 1426.72,1018.59 1439.85,990.85 1433.85,990.64 1443.81,967.26 1438.41,967.26 	"/>
	<path class="st9" d="M121,721"/>
	<polyline class="st9" points="1693.79,966.93 1712.92,1010.66 1708.73,1010.55 1719.36,1035.28 1713.2,1036.05 1725.48,1061.59 
		1718.72,1061.59 1730.12,1085.59 1703.72,1085.59 1703.8,1097.59 1691.22,1097.44 1690.72,1084.59 1666.72,1082.02 
		1673.72,1056.59 1666.72,1056.59 1679.85,1028.85 1673.85,1028.64 1683.81,1005.26 1678.41,1005.26 	"/>
	<polyline class="st9" points="1618.79,960.93 1637.92,1004.66 1633.73,1004.55 1644.36,1029.28 1638.2,1030.05 1650.48,1055.59 
		1643.72,1055.59 1655.12,1079.59 1628.72,1079.59 1628.8,1091.59 1616.22,1091.44 1615.72,1078.59 1591.72,1076.02 
		1598.72,1050.59 1591.72,1050.59 1604.85,1022.85 1598.85,1022.64 1608.81,999.26 1603.41,999.26 	"/>
	<path class="st9" d="M367,410"/>
	<polyline class="st9" points="1725.15,952.93 1744.28,996.66 1740.09,996.55 1750.71,1021.28 1744.55,1022.05 1756.83,1047.59 
		1750.07,1047.59 1761.48,1071.59 1735.07,1071.59 1735.15,1083.59 1722.57,1083.44 1722.07,1070.59 1698.07,1068.02 
		1705.07,1042.59 1698.07,1042.59 1711.2,1014.85 1705.2,1014.64 1715.17,991.26 1709.77,991.26 	"/>
	<polyline class="st9" points="1241.37,902.28 1260.51,946.02 1256.31,945.91 1266.94,970.64 1260.78,971.41 1273.06,996.94 
		1266.3,996.94 1277.7,1020.94 1251.3,1020.94 1251.38,1032.94 1238.8,1032.79 1238.3,1019.94 1214.3,1017.38 1221.3,991.94 
		1214.3,991.94 1227.43,964.2 1221.43,963.99 1231.39,940.61 1225.99,940.61 	"/>
	<polyline class="st9" points="1749.37,967.28 1768.51,1011.02 1764.31,1010.91 1774.94,1035.64 1768.78,1036.41 1781.06,1061.94 
		1774.3,1061.94 1785.7,1085.94 1759.3,1085.94 1759.38,1097.94 1746.8,1097.79 1746.3,1084.94 1722.3,1082.38 1729.3,1056.94 
		1722.3,1056.94 1735.43,1029.2 1729.43,1028.99 1739.39,1005.61 1733.99,1005.61 	"/>
	<polyline class="st9" points="1788.37,953.28 1807.51,997.02 1803.31,996.91 1813.94,1021.64 1807.78,1022.41 1820.06,1047.94 
		1813.3,1047.94 1824.7,1071.94 1798.3,1071.94 1798.38,1083.94 1785.8,1083.79 1785.3,1070.94 1761.3,1068.38 1768.3,1042.94 
		1761.3,1042.94 1774.43,1015.2 1768.43,1014.99 1778.39,991.61 1772.99,991.61 	"/>
	<polyline class="st9" points="1807.37,944.28 1826.51,988.02 1822.31,987.91 1832.94,1012.64 1826.78,1013.41 1839.06,1038.94 
		1832.3,1038.94 1843.7,1062.94 1817.3,1062.94 1817.38,1074.94 1804.8,1074.79 1804.3,1061.94 1780.3,1059.38 1787.3,1033.94 
		1780.3,1033.94 1793.43,1006.2 1787.43,1005.99 1797.39,982.61 1791.99,982.61 	"/>
	<polyline class="st9" points="1835.37,953.28 1854.51,997.02 1850.31,996.91 1860.94,1021.64 1854.78,1022.41 1867.06,1047.94 
		1860.3,1047.94 1871.7,1071.94 1845.3,1071.94 1845.38,1083.94 1832.8,1083.79 1832.3,1070.94 1808.3,1068.38 1815.3,1042.94 
		1808.3,1042.94 1821.43,1015.2 1815.43,1014.99 1825.39,991.61 1819.99,991.61 	"/>
	<polyline class="st9" points="1873.37,961.28 1892.51,1005.02 1888.31,1004.91 1898.94,1029.64 1892.78,1030.41 1905.06,1055.94 
		1898.3,1055.94 1909.7,1079.94 1883.3,1079.94 1883.38,1091.94 1870.8,1091.79 1870.3,1078.94 1846.3,1076.38 1853.3,1050.94 
		1846.3,1050.94 1859.43,1023.2 1853.43,1022.99 1863.39,999.61 1857.99,999.61 	"/>
	<polyline class="st9" points="1905.37,967.28 1924.51,1011.02 1920.31,1010.91 1930.94,1035.64 1924.78,1036.41 1937.06,1061.94 
		1930.3,1061.94 1941.7,1085.94 1915.3,1085.94 1915.38,1097.94 1902.8,1097.79 1902.3,1084.94 1878.3,1082.38 1885.3,1056.94 
		1878.3,1056.94 1891.43,1029.2 1885.43,1028.99 1895.39,1005.61 1889.99,1005.61 	"/>
</g>
</svg>
