<?xml version="1.0" encoding="utf-8"?>
<!-- Generator: Adobe Illustrator 25.2.0, SVG Export Plug-In . SVG Version: 6.00 Build 0)  -->
<svg version="1.1" id="Слой_1" xmlns="http://www.w3.org/2000/svg" xmlns:xlink="http://www.w3.org/1999/xlink" x="0px" y="0px"
	 viewBox="0 0 100 100" style="enable-background:new 0 0 100 100;" xml:space="preserve">
<style type="text/css">
	.st0{fill:#D0000B;stroke:#FF0000;stroke-miterlimit:10;}
</style>
<path class="st0" d="M30.99,43.31c-3.35-1.37-5.68-1.29-8.63-1.81c-2.85-0.5-6.88-1.67-11.59-4.68c0.21,0.86,2.23,8.57,10.03,11.92
	c8.39,3.6,15.86-1.1,16.44-1.48C35.93,46.08,33.85,44.48,30.99,43.31z"/>
<path class="st0" d="M69.78,43.31c3.35-1.37,5.68-1.29,8.63-1.81c2.85-0.5,6.88-1.67,11.59-4.68c-0.21,0.86-2.23,8.57-10.03,11.92
	c-8.39,3.6-15.86-1.1-16.44-1.48C64.84,46.08,66.92,44.48,69.78,43.31z"/>
</svg>
