	<svg xmlns="http://www.w3.org/2000/svg" style="display: none;">

	<symbol id="medal" viewBox="0 0 512 512"><title>medal</title><g> <g> <path d="M433.829,177.829C433.829,79.774,354.055,0,256,0S78.171,79.774,78.171,177.829c0,57.968,27.885,109.542,70.941,142.027 L83.603,459.056l68.286,0.894L196.101,512l59.898-127.279L315.897,512l44.213-52.05l68.287-0.894l-65.508-139.201 C405.944,287.372,433.829,235.798,433.829,177.829z M188.8,457.069l-22.879-26.935l-35.336-0.462l44.106-93.72 c19.039,9.83,40.069,16.317,62.313,18.69L188.8,457.069z M108.168,177.829c0-81.515,66.316-147.832,147.832-147.832 s147.832,66.317,147.832,147.832S337.515,325.662,256,325.662S108.168,259.345,108.168,177.829z M381.415,429.672l-35.336,0.462 L323.2,457.07l-48.202-102.427c22.243-2.374,43.274-8.86,62.313-18.69L381.415,429.672z"/> </g> </g><g> <g> <path d="M256,61.494c-64.147,0-116.335,52.188-116.335,116.335S191.852,294.164,256,294.164 c64.147,0,116.335-52.188,116.335-116.335S320.147,61.494,256,61.494z M256,264.167c-47.607,0-86.338-38.731-86.338-86.338 c0-47.607,38.731-86.338,86.338-86.338s86.338,38.731,86.338,86.338C342.338,225.436,303.607,264.167,256,264.167z"/> </g> </g></symbol>
	
	<symbol id="map-locator" viewBox="0 0 493.508 493.508"><title>map-locator</title><path d="M246.753,0C152.987,0,76.998,76.01,76.998,169.776c0,71.476,98.671,236.177,145.555,310.407 c5.254,8.299,14.403,13.324,24.217,13.324c9.818-0.02,18.948-5.041,24.186-13.34c46.899-74.246,145.555-238.916,145.555-310.392 C416.51,76.01,340.521,0,246.753,0z M246.753,273.424c-53.028,0-96.017-42.983-96.017-96.018c0-53.029,42.988-96.017,96.017-96.017 c53.029,0,96.017,42.987,96.017,96.017C342.77,230.441,299.783,273.424,246.753,273.424z"/></symbol>
	
	<symbol id="clock" viewBox="0 0 384 384"><title>clock</title><path d="m343.59375 101.039062c-7.953125 3.847657-11.28125 13.417969-7.433594 21.367188 10.511719 21.714844 15.839844 45.121094 15.839844 69.59375 0 88.222656-71.777344 160-160 160s-160-71.777344-160-160 71.777344-160 160-160c36.558594 0 70.902344 11.9375 99.328125 34.519531 6.894531 5.503907 16.976563 4.351563 22.480469-2.566406 5.503906-6.914063 4.351562-16.984375-2.570313-22.480469-33.652343-26.746094-76-41.472656-119.238281-41.472656-105.863281 0-192 86.136719-192 192s86.136719 192 192 192 192-86.136719 192-192c0-29.335938-6.40625-57.449219-19.039062-83.527344-3.839844-7.96875-13.441407-11.289062-21.367188-7.433594zm0 0"/><path d="m192 64c-8.832031 0-16 7.167969-16 16v112c0 8.832031 7.167969 16 16 16h80c8.832031 0 16-7.167969 16-16s-7.167969-16-16-16h-64v-96c0-8.832031-7.167969-16-16-16zm0 0"/></symbol>
	
	<symbol id="twitter" viewBox="0 0 512 512"><title>Twitter</title><path d="M512,97.248c-19.04,8.352-39.328,13.888-60.48,16.576c21.76-12.992,38.368-33.408,46.176-58.016 c-20.288,12.096-42.688,20.64-66.56,25.408C411.872,60.704,384.416,48,354.464,48c-58.112,0-104.896,47.168-104.896,104.992 c0,8.32,0.704,16.32,2.432,23.936c-87.264-4.256-164.48-46.08-216.352-109.792c-9.056,15.712-14.368,33.696-14.368,53.056 c0,36.352,18.72,68.576,46.624,87.232c-16.864-0.32-33.408-5.216-47.424-12.928c0,0.32,0,0.736,0,1.152 c0,51.008,36.384,93.376,84.096,103.136c-8.544,2.336-17.856,3.456-27.52,3.456c-6.72,0-13.504-0.384-19.872-1.792 c13.6,41.568,52.192,72.128,98.08,73.12c-35.712,27.936-81.056,44.768-130.144,44.768c-8.608,0-16.864-0.384-25.12-1.44 C46.496,446.88,101.6,464,161.024,464c193.152,0,298.752-160,298.752-298.688c0-4.64-0.16-9.12-0.384-13.568 C480.224,136.96,497.728,118.496,512,97.248z"/></symbol>
	
	<symbol id="instagram" viewBox="0 0 512 512"><title>instagram</title><g> <g> <path d="M352,0H160C71.648,0,0,71.648,0,160v192c0,88.352,71.648,160,160,160h192c88.352,0,160-71.648,160-160V160 C512,71.648,440.352,0,352,0z M464,352c0,61.76-50.24,112-112,112H160c-61.76,0-112-50.24-112-112V160C48,98.24,98.24,48,160,48 h192c61.76,0,112,50.24,112,112V352z"/> </g> </g><g> <g> <path d="M256,128c-70.688,0-128,57.312-128,128s57.312,128,128,128s128-57.312,128-128S326.688,128,256,128z M256,336 c-44.096,0-80-35.904-80-80c0-44.128,35.904-80,80-80s80,35.872,80,80C336,300.096,300.096,336,256,336z"/> </g> </g><g> <g> <circle cx="393.6" cy="118.4" r="17.056"/> </g> </g></symbol>
	
	<symbol id="google-plus" viewBox="0 0 512 512"><title>google-plus</title><g> <g> <polygon points="448,224 448,160 416,160 416,224 352,224 352,256 416,256 416,320 448,320 448,256 512,256 512,224 "/> </g> </g><g> <g> <path d="M160,224v64h90.528c-13.216,37.248-48.8,64-90.528,64c-52.928,0-96-43.072-96-96c0-52.928,43.072-96,96-96 c22.944,0,45.024,8.224,62.176,23.168l42.048-48.256C235.424,109.824,198.432,96,160,96C71.776,96,0,167.776,0,256 s71.776,160,160,160s160-71.776,160-160v-32H160z"/> </g> </g></symbol>
	
	<symbol id="facebook" viewBox="0 0 512 512"><title>facebook</title><path d="M288,176v-64c0-17.664,14.336-32,32-32h32V0h-64c-53.024,0-96,42.976-96,96v80h-64v80h64v256h96V256h64l32-80H288z"/></symbol>
	
	<symbol id="phone-call" viewBox="0 0 513.64 513.64"><title>phone-call</title><path d="M499.66,376.96l-71.68-71.68c-25.6-25.6-69.12-15.359-79.36,17.92c-7.68,23.041-33.28,35.841-56.32,30.72 c-51.2-12.8-120.32-79.36-133.12-133.12c-7.68-23.041,7.68-48.641,30.72-56.32c33.28-10.24,43.52-53.76,17.92-79.36l-71.68-71.68 c-20.48-17.92-51.2-17.92-69.12,0l-48.64,48.64c-48.64,51.2,5.12,186.88,125.44,307.2c120.32,120.32,256,176.641,307.2,125.44 l48.64-48.64C517.581,425.6,517.581,394.88,499.66,376.96z"/></symbol>
	
	<symbol id="email" viewBox="0 0 433.664 433.664"><title>email</title><g> <g> <path d="M229.376,271.616c-4.096,2.56-8.704,3.584-12.8,3.584s-8.704-1.024-12.8-3.584L0,147.2v165.376c0,35.328,28.672,64,64,64 h305.664c35.328,0,64-28.672,64-64V147.2L229.376,271.616z"/> </g> </g><g> <g> <path d="M369.664,57.088H64c-30.208,0-55.808,21.504-61.952,50.176l215.04,131.072l214.528-131.072 C425.472,78.592,399.872,57.088,369.664,57.088z"/> </g> </g></symbol>
	
	<symbol id="settings" viewBox="0 0 512 512"><title>settings</title><g> <g> <path d="M490.667,405.333h-56.811C424.619,374.592,396.373,352,362.667,352s-61.931,22.592-71.189,53.333H21.333 C9.557,405.333,0,414.891,0,426.667S9.557,448,21.333,448h270.144c9.237,30.741,37.483,53.333,71.189,53.333 s61.931-22.592,71.189-53.333h56.811c11.797,0,21.333-9.557,21.333-21.333S502.464,405.333,490.667,405.333z M362.667,458.667 c-17.643,0-32-14.357-32-32s14.357-32,32-32s32,14.357,32,32S380.309,458.667,362.667,458.667z"/> </g> </g><g> <g> <path d="M490.667,64h-56.811c-9.259-30.741-37.483-53.333-71.189-53.333S300.736,33.259,291.477,64H21.333 C9.557,64,0,73.557,0,85.333s9.557,21.333,21.333,21.333h270.144C300.736,137.408,328.96,160,362.667,160 s61.931-22.592,71.189-53.333h56.811c11.797,0,21.333-9.557,21.333-21.333S502.464,64,490.667,64z M362.667,117.333 c-17.643,0-32-14.357-32-32c0-17.643,14.357-32,32-32s32,14.357,32,32C394.667,102.976,380.309,117.333,362.667,117.333z"/> </g> </g><g> <g> <path d="M490.667,234.667H220.523c-9.259-30.741-37.483-53.333-71.189-53.333s-61.931,22.592-71.189,53.333H21.333 C9.557,234.667,0,244.224,0,256c0,11.776,9.557,21.333,21.333,21.333h56.811c9.259,30.741,37.483,53.333,71.189,53.333 s61.931-22.592,71.189-53.333h270.144c11.797,0,21.333-9.557,21.333-21.333C512,244.224,502.464,234.667,490.667,234.667z M149.333,288c-17.643,0-32-14.357-32-32s14.357-32,32-32c17.643,0,32,14.357,32,32S166.976,288,149.333,288z"/> </g> </g></symbol>
	
	<symbol id="messenger" viewBox="0 0 512 512.0002"><title>messenger</title><path d="m256 0c-141.484375 0-256 114.496094-256 256 0 44.902344 11.710938 88.757812 33.949219 127.4375l-32.984375 102.429688c-2.300782 7.140624-.410156 14.96875 4.894531 20.273437 5.253906 5.253906 13.0625 7.214844 20.273437 4.894531l102.429688-32.984375c38.679688 22.238281 82.535156 33.949219 127.4375 33.949219 141.484375 0 256-114.496094 256-256 0-141.484375-114.496094-256-256-256zm0 472c-40.558594 0-80.09375-11.316406-114.332031-32.726562-4.925781-3.078126-11.042969-3.910157-16.734375-2.078126l-73.941406 23.8125 23.8125-73.941406c1.804687-5.609375 1.042968-11.734375-2.082032-16.734375-21.40625-34.238281-32.722656-73.773437-32.722656-114.332031 0-119.101562 96.898438-216 216-216s216 96.898438 216 216-96.898438 216-216 216zm25-216c0 13.804688-11.191406 25-25 25s-25-11.195312-25-25c0-13.808594 11.191406-25 25-25s25 11.191406 25 25zm100 0c0 13.804688-11.191406 25-25 25s-25-11.195312-25-25c0-13.808594 11.191406-25 25-25s25 11.191406 25 25zm-200 0c0 13.804688-11.191406 25-25 25-13.804688 0-25-11.195312-25-25 0-13.808594 11.195312-25 25-25 13.808594 0 25 11.191406 25 25zm0 0"/></symbol>
	
	<symbol id="wallet" viewBox="0 0 74 74"><title>wallet</title><path d="m63.876 69.346h-56.99a4.891 4.891 0 0 1 -4.886-4.886v-45.333a1 1 0 0 1 1-1h60.876a4.892 4.892 0 0 1 4.886 4.886v13.38a1 1 0 0 1 -2 0v-13.38a2.889 2.889 0 0 0 -2.886-2.886h-59.876v44.333a2.89 2.89 0 0 0 2.886 2.886h56.99a2.89 2.89 0 0 0 2.886-2.886v-13.379a1 1 0 0 1 2 0v13.379a4.892 4.892 0 0 1 -4.886 4.886z"/><path d="m69.327 52.076h-11.711a8.34 8.34 0 1 1 0-16.68h11.711a2.677 2.677 0 0 1 2.673 2.674v11.33a2.676 2.676 0 0 1 -2.673 2.676zm-11.711-14.676a6.34 6.34 0 1 0 0 12.68h11.711a.674.674 0 0 0 .673-.68v-11.33a.675.675 0 0 0 -.673-.674z"/><path d="m3 20.127a1 1 0 0 1 -.324-1.946l38.324-13.129a7.272 7.272 0 0 1 9.63 6.88v7.195a1 1 0 1 1 -2 0v-7.195a5.273 5.273 0 0 0 -6.982-4.988l-38.324 13.129a.992.992 0 0 1 -.324.054z"/><path d="m58.008 47.327a3.591 3.591 0 1 1 3.592-3.591 3.594 3.594 0 0 1 -3.592 3.591zm0-5.181a1.591 1.591 0 1 0 1.591 1.59 1.591 1.591 0 0 0 -1.591-1.59z"/></symbol>
	
	<symbol id="fire" viewBox="0 0 512 512"><title>fire</title><path d="M369.215,159.814c-91.389-55.601-48.533-134.078-46.694-137.34c2.668-4.642,2.66-10.353-0.022-14.987 C319.818,2.853,314.87,0,309.516,0c-47.043,0-83.881,13.366-109.49,39.728c-43.759,45.045-41.729,115.152-40.863,145.09 c0.096,3.316,0.179,6.182,0.179,8.31c0,22.228,3.566,42.749,6.713,60.854c2.028,11.667,3.779,21.743,4.09,29.665 c0.333,8.48-1.215,10.424-1.281,10.502c-0.221,0.262-2.061,1.241-7.036,1.241c-5.674,0-9.857-1.854-13.563-6.009 c-14.476-16.232-15.477-60.554-12.709-84.667c0.495-4.252-0.85-8.512-3.697-11.708c-2.846-3.196-6.922-5.024-11.202-5.024 c-38.945,0-68.046,63.688-68.046,120.632c0,26.769,5.384,52.992,16.003,77.94c10.266,24.118,24.905,45.886,43.512,64.696 C150.878,490.425,201.971,512,255.995,512c54.241,0,105.321-21.27,143.831-59.89c38.41-38.52,59.563-89.483,59.563-143.498 C459.388,239.69,405.462,181.865,369.215,159.814z M255.995,482c-93.983,0-173.383-79.401-173.383-173.388 c0-22.857,5.454-46.85,14.963-65.825c2.221-4.433,4.5-8.236,6.749-11.44c0.251,24.747,4.171,58.482,21.526,77.972 c9.362,10.513,21.803,16.07,35.979,16.07c13.243,0,23.335-4.014,29.993-11.93c12.448-14.798,8.627-36.782,3.791-64.615 c-2.939-16.91-6.27-36.077-6.27-55.717c0-2.563-0.089-5.628-0.191-9.179c-0.821-28.358-2.53-87.367,32.393-123.316 C237.222,44.493,259.11,34.671,286.8,31.31c-3.126,10.38-5.821,23.557-5.925,38.311c-0.23,32.508,12.204,78.989,72.748,115.823 c29.293,17.821,75.766,67.018,75.766,123.169C429.388,404.219,351.604,482,255.995,482z"/></symbol>
	
	<symbol id="headphones" viewBox="0 0 512 512"><title>headphones</title><path d="m45 422h30c8.285156 0 15-6.714844 15-15v-151c0-8.285156-6.714844-15-15-15h-30c-24.851562 0-45 20.148438-45 45v91c0 24.851562 20.148438 45 45 45zm0 0"/><path d="m467 241h-30c-8.285156 0-15 6.714844-15 15v181c0 8.277344-6.722656 15-15 15h-77.761719c-6.214843-17.421875-22.707031-30-42.238281-30h-61c-24.8125 0-45 20.1875-45 45s20.1875 45 45 45h61c19.53125 0 36.023438-12.578125 42.238281-30h77.761719c24.8125 0 45-20.1875 45-45v-15h15c24.851562 0 45-20.148438 45-45v-91c0-24.851562-20.148438-45-45-45zm0 0"/><path d="m30.683594 212.449219c4.640625-.902344 9.414062-1.449219 14.316406-1.449219h30c5.507812 0 10.726562 1.132812 15.609375 2.953125 6.191406-85.480469 78.328125-153.953125 165.390625-153.953125s159.199219 68.472656 165.390625 153.953125c4.882813-1.820313 10.101563-2.953125 15.609375-2.953125h30c4.902344 0 9.675781.546875 14.316406 1.449219-7.042968-117.917969-105.628906-212.449219-225.316406-212.449219s-218.273438 94.53125-225.316406 212.449219zm0 0"/></symbol>
	
	<symbol id="smartphone" viewBox="0 0 512 512"><title>smartphone</title><g> <g> <path d="M414.32,461.913V50.087C414.32,22.472,391.853,0,364.233,0H147.746c-27.615,0-50.087,22.472-50.087,50.087v411.826 c0,27.62,22.472,50.087,50.087,50.087h217.044c13.384,0,26.401-5.504,35.712-15.098 C409.806,487.307,414.709,474.702,414.32,461.913z M376.532,473.645c-3.1,3.206-7.268,4.964-11.743,4.964H147.746 c-9.205,0-16.696-7.491-16.696-16.696V50.087c0-9.205,7.491-16.696,16.696-16.696h216.487c9.205,0,16.696,7.491,16.696,16.696 l0.006,412.327C381.062,466.599,379.498,470.589,376.532,473.645z"/> </g> </g><g> <g> <rect x="114.354" y="65.113" width="283.826" height="33.391"/> </g> </g><g> <g> <rect x="114.354" y="387.339" width="283.826" height="33.391"/> </g> </g><g> <g> <path d="M270.181,432.417h-27.826c-9.222,0-16.696,7.474-16.696,16.696s7.474,16.696,16.696,16.696h27.826 c9.222,0,16.696-7.474,16.696-16.696S279.402,432.417,270.181,432.417z"/> </g> </g></symbol>
	
	<symbol id="home" viewBox="0 1 511 511.999"><title>home</title><path d="m498.699219 222.695312c-.015625-.011718-.027344-.027343-.039063-.039062l-208.855468-208.847656c-8.902344-8.90625-20.738282-13.808594-33.328126-13.808594-12.589843 0-24.425781 4.902344-33.332031 13.808594l-208.746093 208.742187c-.070313.070313-.144532.144531-.210938.214844-18.28125 18.386719-18.25 48.21875.089844 66.558594 8.378906 8.382812 19.441406 13.234375 31.273437 13.746093.484375.046876.96875.070313 1.457031.070313h8.320313v153.695313c0 30.417968 24.75 55.164062 55.167969 55.164062h81.710937c8.285157 0 15-6.71875 15-15v-120.5c0-13.878906 11.292969-25.167969 25.171875-25.167969h48.195313c13.878906 0 25.167969 11.289063 25.167969 25.167969v120.5c0 8.28125 6.714843 15 15 15h81.710937c30.421875 0 55.167969-24.746094 55.167969-55.164062v-153.695313h7.71875c12.585937 0 24.421875-4.902344 33.332031-13.8125 18.359375-18.367187 18.367187-48.253906.027344-66.632813zm-21.242188 45.421876c-3.238281 3.238281-7.542969 5.023437-12.117187 5.023437h-22.71875c-8.285156 0-15 6.714844-15 15v168.695313c0 13.875-11.289063 25.164062-25.167969 25.164062h-66.710937v-105.5c0-30.417969-24.746094-55.167969-55.167969-55.167969h-48.195313c-30.421875 0-55.171875 24.75-55.171875 55.167969v105.5h-66.710937c-13.875 0-25.167969-11.289062-25.167969-25.164062v-168.695313c0-8.285156-6.714844-15-15-15h-22.328125c-.234375-.015625-.464844-.027344-.703125-.03125-4.46875-.078125-8.660156-1.851563-11.800781-4.996094-6.679688-6.679687-6.679688-17.550781 0-24.234375.003906 0 .003906-.003906.007812-.007812l.011719-.011719 208.847656-208.839844c3.234375-3.238281 7.535157-5.019531 12.113281-5.019531 4.574219 0 8.875 1.78125 12.113282 5.019531l208.800781 208.796875c.03125.03125.066406.0625.097656.09375 6.644531 6.691406 6.632813 17.539063-.03125 24.207032zm0 0"/></symbol>
	
	<symbol id="user" viewBox="-42 0 512 512.002"><title>Вход/Регистрация</title><path d="m210.351562 246.632812c33.882813 0 63.222657-12.152343 87.195313-36.128906 23.972656-23.972656 36.125-53.304687 36.125-87.191406 0-33.875-12.152344-63.210938-36.128906-87.191406-23.976563-23.96875-53.3125-36.121094-87.191407-36.121094-33.886718 0-63.21875 12.152344-87.191406 36.125s-36.128906 53.308594-36.128906 87.1875c0 33.886719 12.15625 63.222656 36.132812 87.195312 23.976563 23.96875 53.3125 36.125 87.1875 36.125zm0 0"/><path d="m426.128906 393.703125c-.691406-9.976563-2.089844-20.859375-4.148437-32.351563-2.078125-11.578124-4.753907-22.523437-7.957031-32.527343-3.308594-10.339844-7.808594-20.550781-13.371094-30.335938-5.773438-10.15625-12.554688-19-20.164063-26.277343-7.957031-7.613282-17.699219-13.734376-28.964843-18.199219-11.226563-4.441407-23.667969-6.691407-36.976563-6.691407-5.226563 0-10.28125 2.144532-20.042969 8.5-6.007812 3.917969-13.035156 8.449219-20.878906 13.460938-6.707031 4.273438-15.792969 8.277344-27.015625 11.902344-10.949219 3.542968-22.066406 5.339844-33.039063 5.339844-10.972656 0-22.085937-1.796876-33.046874-5.339844-11.210938-3.621094-20.296876-7.625-26.996094-11.898438-7.769532-4.964844-14.800782-9.496094-20.898438-13.46875-9.75-6.355468-14.808594-8.5-20.035156-8.5-13.3125 0-25.75 2.253906-36.972656 6.699219-11.257813 4.457031-21.003906 10.578125-28.96875 18.199219-7.605469 7.28125-14.390625 16.121094-20.15625 26.273437-5.558594 9.785157-10.058594 19.992188-13.371094 30.339844-3.199219 10.003906-5.875 20.945313-7.953125 32.523437-2.058594 11.476563-3.457031 22.363282-4.148437 32.363282-.679688 9.796875-1.023438 19.964844-1.023438 30.234375 0 26.726562 8.496094 48.363281 25.25 64.320312 16.546875 15.746094 38.441406 23.734375 65.066406 23.734375h246.53125c26.625 0 48.511719-7.984375 65.0625-23.734375 16.757813-15.945312 25.253906-37.585937 25.253906-64.324219-.003906-10.316406-.351562-20.492187-1.035156-30.242187zm0 0"/></symbol>
	
	<symbol id="star" viewBox="0 0 512.002 512.002"><title>star</title><path d="M511.267,197.258c-1.764-5.431-6.457-9.389-12.107-10.209l-158.723-23.065L269.452,20.157 c-2.526-5.12-7.741-8.361-13.45-8.361c-5.71,0-10.924,3.241-13.451,8.361l-70.988,143.827l-158.72,23.065 c-5.649,0.82-10.344,4.778-12.108,10.208c-1.765,5.431-0.293,11.392,3.796,15.377l114.848,111.954L92.271,482.671 c-0.966,5.628,1.348,11.314,5.967,14.671c2.613,1.898,5.708,2.864,8.818,2.864c2.388,0,4.784-0.569,6.978-1.723l141.967-74.638 l141.961,74.637c5.055,2.657,11.178,2.215,15.797-1.141c4.619-3.356,6.934-9.044,5.969-14.672l-27.117-158.081l114.861-111.955 C511.56,208.649,513.033,202.688,511.267,197.258z"/></symbol>
	
	<symbol id="loupe" viewBox="0 0 512.005 512.005"><title>loupe</title><path d="M505.749,475.587l-145.6-145.6c28.203-34.837,45.184-79.104,45.184-127.317c0-111.744-90.923-202.667-202.667-202.667 S0,90.925,0,202.669s90.923,202.667,202.667,202.667c48.213,0,92.48-16.981,127.317-45.184l145.6,145.6 c4.16,4.16,9.621,6.251,15.083,6.251s10.923-2.091,15.083-6.251C514.091,497.411,514.091,483.928,505.749,475.587z M202.667,362.669c-88.235,0-160-71.765-160-160s71.765-160,160-160s160,71.765,160,160S290.901,362.669,202.667,362.669z"/></symbol>
	
	<symbol id="pinterest" viewBox="0 0 24 24"><title>pinterest</title><path d="m12.326 0c-6.579.001-10.076 4.216-10.076 8.812 0 2.131 1.191 4.79 3.098 5.633.544.245.472-.054.94-1.844.037-.149.018-.278-.102-.417-2.726-3.153-.532-9.635 5.751-9.635 9.093 0 7.394 12.582 1.582 12.582-1.498 0-2.614-1.176-2.261-2.631.428-1.733 1.266-3.596 1.266-4.845 0-3.148-4.69-2.681-4.69 1.49 0 1.289.456 2.159.456 2.159s-1.509 6.096-1.789 7.235c-.474 1.928.064 5.049.111 5.318.029.148.195.195.288.073.149-.195 1.973-2.797 2.484-4.678.186-.685.949-3.465.949-3.465.503.908 1.953 1.668 3.498 1.668 4.596 0 7.918-4.04 7.918-9.053-.016-4.806-4.129-8.402-9.423-8.402z"/></symbol>
	
	<symbol id="vk" viewBox="0 0 24 24"><title>vk</title><path d="m19.915 13.028c-.388-.49-.277-.708 0-1.146.005-.005 3.208-4.431 3.538-5.932l.002-.001c.164-.547 0-.949-.793-.949h-2.624c-.668 0-.976.345-1.141.731 0 0-1.336 3.198-3.226 5.271-.61.599-.892.791-1.225.791-.164 0-.419-.192-.419-.739v-5.105c0-.656-.187-.949-.74-.949h-4.126c-.419 0-.668.306-.668.591 0 .622.945.765 1.043 2.515v3.797c0 .832-.151.985-.486.985-.892 0-3.057-3.211-4.34-6.886-.259-.713-.512-1.001-1.185-1.001h-2.625c-.749 0-.9.345-.9.731 0 .682.892 4.073 4.148 8.553 2.17 3.058 5.226 4.715 8.006 4.715 1.671 0 1.875-.368 1.875-1.001 0-2.922-.151-3.198.686-3.198.388 0 1.056.192 2.616 1.667 1.783 1.749 2.076 2.532 3.074 2.532h2.624c.748 0 1.127-.368.909-1.094-.499-1.527-3.871-4.668-4.023-4.878z"/></symbol>
	</svg>
